Patient4_TMGait_0pt7_01_right_44_EMG.mot
version=1
nRows=36
nColumns=33
inDegrees=no
endheader
time	1LAddLong	2LGlutMax	3LGlutMed	4LIliopsoas	5LSemiMemb	6LBicFemLong	7LRecFem	8LVastMed	9LVastLat	10LGasMed	11LTibAnt	12lTibPost	13LPeroneusLong	14LSol	15LExtDigLong	16LFlexDigLong	17RAddLong	18RGlutMax	19RGlutMed	20RIliopsoas	21RSemiMemb	22RBicFemLong	23RRecFem	24RVastMed	25RVastLat	26RGasMed	27RTibAnt	28RTibPost	29RPeroneusLong	30RSol	31RExtDigLong	32RFlexDigLong
51.653	0.010986	0.096893	0.066681	-0.011444	-0.037689	-0.028992	0.046692	-0.000305	0.048218	-0.33951	0.005035	-0.097198	-0.10986	-0.030365	-0.059967	-0.018616	-0.031433	-0.04837	0.57037	0.000305	-0.007019	0.05188	0.06134	-0.00473	0.00946	-0.020752	0.090332	0.014343	-0.07309	-0.023956	-0.002899	0.001526
51.654	0.003204	0.090027	0.10803	-0.008087	-0.036316	-0.054016	0.032501	0.005493	-0.021515	-0.30868	0.002136	-0.098419	0.037231	-0.13016	-0.047913	-0.007477	-0.014954	-0.073395	0.80246	0.081482	0.004272	0.040741	0.055695	-0.038605	0.010071	-0.013428	0.060272	0.013428	-0.051575	-0.015717	-0.002441	-0.002136
51.655	0.007324	0.056915	0.077209	-0.002747	-0.027466	-0.067444	0.04425	0.005188	-0.057373	-0.099335	0.00412	-0.087585	0.049896	-0.26901	-0.070648	-0.021973	-0.016022	-0.08606	0.54321	0.018005	-0.002136	0.060425	0.062561	-0.026703	-0.009613	-0.010223	0.066223	0.014343	-0.083008	0.002747	-0.000763	-0.012207
51.656	0.010681	0.036163	0.077515	0.016479	-0.000305	-0.089722	0.050812	0.007324	-0.035095	0.081482	0.033722	-0.11429	-0.17532	-0.26184	-0.039673	-0.009918	-0.004883	-0.17425	0.021667	-0.014191	-0.006104	0.042725	0.055237	-0.048523	0.008698	-0.014191	0.069885	0.00824	-0.13687	-0.02182	-0.001221	-0.005188
51.657	0.010681	0.031586	0.078278	0.019989	0.061035	-0.11429	0.069427	0.005035	-0.020599	0.16876	0.036316	-0.084076	-0.19959	-0.14832	0.027313	-0.017548	-0.004578	-0.12009	0.028229	-0.040741	-0.002289	0.03952	0.036316	-0.019379	0.01358	-0.01297	0.039825	0.009155	-0.095978	-0.027771	-0.00061	-0.001068
51.658	0.012054	0.032806	-0.023193	0.013123	0.044861	-0.066071	0.055695	0.007172	-0.007629	-0.056458	0.018768	-0.089417	-0.028534	-0.032196	0.02182	-0.003967	0.003815	-0.015106	0.22095	-0.090485	0.004578	0.041351	0.071869	-0.016022	-0.00061	-0.016479	0.056763	0.012512	-0.059814	-0.008392	-0.00061	-0.009003
51.659	0.004883	0.054169	-0.043793	-0.020599	0.004272	-0.007477	0.055237	0.005646	-0.002747	-0.13397	0.019531	-0.10513	0.019836	0.023956	-0.000305	0.002441	0.009308	-0.046082	-0.33524	-0.064087	0.009308	0.046692	0.068359	-0.028076	0.018768	-0.013885	0.04715	0.016022	-0.027313	0	-0.001373	-0.00946
51.66	-0.005951	0.049744	-0.024567	-0.024872	0.006256	0.085754	0.082397	0.005646	0.009155	-0.10559	0.015259	-0.093689	0.21439	0.12314	0.040741	0.001373	0.005493	0.032349	-0.65308	-0.059662	-0.003052	0.045624	0.080719	-0.02533	0.019684	-0.012817	0.022736	0.006104	0.016937	-0.002441	-0.009918	-0.005188
51.661	-0.005035	0.032196	0.063324	-0.016479	-0.053406	0.15976	0.072174	0.00885	-0.010681	-0.14023	-0.031281	-0.1001	0.26459	0.19134	0.035858	0.00946	-0.004425	0.08255	-0.37766	-0.039673	-0.010071	0.037689	0.081329	-0.045471	-0.001221	-0.01358	-0.003357	0.009308	0.032349	0.009003	-0.003815	-0.005798
51.662	-0.006104	0.011444	-0.009613	-0.006714	-0.001221	0.15427	0.049591	0.008545	-0.009155	-0.16586	-0.035706	-0.063019	-0.12253	0.11322	-0.014343	0.018921	-0.005493	0.075836	0.42252	-0.087128	-0.006714	0.029907	0.073242	-0.071259	0.009918	-0.013428	0.006866	0.009003	0.045471	-0.019226	-0.002594	0.001526
51.663	0.002289	0.011139	0.041351	-0.005798	0.015869	0.10895	-0.007477	0.006104	-0.02655	-0.11704	0.018463	-0.053253	-0.38788	-0.057678	-0.121	-0.019684	-0.008392	0.08255	0.19058	-0.16159	0.001221	-0.001373	0.06012	-0.063171	0.006104	-0.014038	0.025024	0.013733	0.035858	-0.035553	-0.002594	-0.002441
51.664	0.015564	0.023193	0.15442	0.030365	-0.030518	0.027313	0.007324	0.005951	-0.027924	-0.066223	0.021973	-0.043335	-0.13565	-0.14755	-0.13016	-0.019989	0.005341	0.024109	-0.17883	-0.17944	0.02121	0.005035	0.025024	-0.085449	0.016785	-0.017242	0.04364	0.00351	-0.008392	-0.050201	-0.005798	0.002136
51.665	0.00351	0.019836	0.12726	0.006409	-0.090637	-0.032959	0.098572	0.010681	-0.031128	-0.15472	0.01358	-0.03479	-0.007324	-0.17075	-0.067596	-0.00946	0.011139	0.054169	0.13245	-0.10895	0.030212	0.01709	0.023499	-0.067596	0.017548	-0.00885	0.022125	0.00946	0.013885	-0.042725	-0.002289	-0.002594
51.666	0.02243	-0.001984	0.098877	-0.00824	-0.066986	-0.083923	0.10788	0.010986	-0.047607	-0.17746	-0.003052	-0.078583	0.11978	-0.1091	0.000916	0.004425	0.013275	-0.007019	-0.36438	0.11337	-0.078278	0.073395	0.006561	-0.046844	0.043182	-0.008545	0.021515	0.004578	0.024261	-0.02243	-0.002899	0.002899
51.667	0.01297	0.002441	0.09964	-0.016174	0.00061	-0.066528	0.11429	0.016327	-0.045166	-0.13931	-0.008698	-0.11688	0.13809	0.055695	0.040588	0.015106	0.022736	0.0354	0.20676	0.23865	-0.036316	0.048065	0.016632	-0.095367	0.038757	0.001526	0.032806	0.005951	-0.001984	-0.020142	0.005951	-0.001068
51.668	0.013733	0.015411	0.1091	-0.000153	0.032043	-0.083771	0.11643	0.008698	-0.041504	-0.057526	0.014191	-0.054932	-0.007629	0.052185	0.067139	0.005493	0.034027	-0.045929	1.2148	0.054321	-0.044861	0.046692	0.003052	-0.11627	0.019684	0.00412	0.035095	0.002594	-0.017548	-0.020447	-0.005798	-0.003357
51.669	0.012512	-0.031128	0.067444	-0.007782	0.024567	-0.079041	0.10468	0.008545	-0.03067	-0.075836	0.016479	-0.064392	-0.054779	0.17166	-0.00824	0.001831	0.02594	-0.14267	1.6452	-0.081024	-0.04425	0.002747	0.031281	-0.099335	0.032806	0.007477	0.031586	-0.002594	0.006104	-0.016174	-0.005341	-0.001221
51.67	0.004425	-0.011749	0.13809	-0.011292	-0.003357	-0.041962	0.12497	0.004272	-0.053711	-0.11353	0.003357	-0.056305	0.054474	0.23727	-0.044556	-0.004425	0.019226	-0.16617	1.3634	-0.084991	-0.000153	-0.027771	0.028229	-0.035858	0.024567	0.012512	0.030975	-0.000763	-0.010223	-0.021362	-0.003967	0.003204
51.671	0.019226	0.014343	0.088043	0.001984	-0.007782	-0.014343	0.093231	0.007935	-0.046082	-0.13489	-0.000305	-0.044556	0.14404	0.20416	-0.02594	-0.006714	0.029755	-0.11292	0.28259	0.074615	0.052185	-0.034943	0.024109	-0.049438	0.004272	0.018005	0.024414	0.002747	-0.019226	-0.013428	0.000763	0.001068
51.672	0.016327	-0.001831	0.038452	0.001373	-0.068054	0.082092	-0.010986	0.018005	0.006409	-0.15213	0.000458	-0.04303	0.16953	0.10757	-0.024109	-0.4245	0.032806	-0.074158	-0.22888	0.13062	0.11917	-0.033112	-0.029297	-0.077667	0.000763	0.022736	0.032501	-0.004883	0.007935	-0.013275	-0.003662	-0.004272
51.673	0.00061	0.017242	0.060577	0.020294	0.028687	0.11246	0.078888	0.001068	0.11704	-0.20294	-0.000458	-0.049438	0.13428	0.13321	0.005188	-0.000458	0.013428	0.002747	-0.19119	0.049133	0.058899	-0.014496	-0.005646	-0.04715	-0.006561	0.026245	0.11475	-0.002441	-0.010986	-0.016479	-0.00412	-0.007629
51.674	0.004883	0.026703	0.13565	0.001984	0.052948	0.036926	0.13977	-0.002136	0.066071	-0.17609	-0.007172	-0.012054	0.040283	0.17014	0.03006	-0.49637	0.017548	0.075378	-0.058746	0.029755	-0.1181	0.069427	-0.036621	-0.042572	-0.003204	0.033875	0.16785	0.002136	-0.027771	-0.018311	-0.004883	-0.006256
51.675	0.00412	0.01358	0.15366	0.014954	0.088654	0.061035	0.057983	-0.007935	0.053711	-0.00412	-0.006256	0.003662	0.04776	0.27405	0.014191	0.42221	0.019531	0.020142	0.21271	0.001068	-0.11459	0.12848	-0.039673	-0.007172	-0.010986	0.028687	0.24216	0.000458	-0.02533	-0.029297	-0.005951	-0.00351
51.676	-0.004883	-0.005188	0.087738	0.005035	0.1004	0.067444	0.034027	0.003357	0.041809	0.10361	-0.003052	-0.10941	0.003204	-0.029297	0.016785	0.015106	0.016937	-0.027313	0.12116	0.045776	-0.12161	0.15015	-0.007172	0.022583	-0.005798	0.032196	0.25452	-0.004425	-0.002136	-0.018158	-0.002441	0.000763
51.677	0.005646	-0.021667	0.056152	-0.001984	0.040894	0.014496	0.04425	0.009766	0.058746	0.092163	0.011597	-0.035858	-0.10269	-0.34973	-0.000458	0.1973	0.005798	-0.014954	-0.61722	0.13062	-0.074615	0.17777	-0.00412	0.080872	-0.010223	0.029602	0.15533	0.007782	0.024109	-0.016479	0.001221	-0.002289
51.678	0.001831	0.025482	0.074158	-0.003357	-0.018616	-0.11398	0.079193	0.009613	0.071259	0.13001	0.01358	-0.060272	-0.1091	-0.4303	-0.013733	-0.41534	-0.007324	0.063171	-1.1885	0.13092	0.013885	0.11108	-0.001678	0.089722	-0.000458	0.032501	0.030823	-0.00351	0.020905	-0.02594	-0.001678	0.000763
51.679	0.010681	0.010681	0.032806	0.004883	-0.035553	-0.21561	0.11658	-0.003204	0.048523	0.14313	0.016022	0.057983	-0.053711	-0.4303	-0.005341	-0.52368	-0.001068	0.07309	-1.1891	0.062103	-0.04303	0.075073	0.050964	0.05188	0.004272	0.023346	-0.26993	-0.001221	0.018158	-0.021057	-0.002747	-0.00412
51.68	0.021973	-0.006409	-0.020752	0.014648	-0.012665	-0.13504	0.15549	-0.006866	0.03006	0.20889	0.00885	0.024414	0.084076	-0.42541	-0.004883	1.0912	-0.049286	0.1088	-1.1824	-0.042877	0.068665	0.12161	-0.007019	0.061951	0.00473	0.021362	-0.12817	-0.002441	-0.022736	-0.023804	-0.002136	0.000763
51.681	0.028992	-0.005188	0.005341	0.002747	-0.067749	0.047455	0.14877	0.000458	0.02655	0.036163	0.014038	-0.040741	0.085449	-0.48218	0.014648	-0.76462	-0.056152	0.15213	0.61554	-0.16586	0.16235	0.13275	-0.027313	-0.012054	0.023956	0.00946	0.008545	-0.007629	-0.045929	-0.000763	-0.002899	0.002747
51.682	0.028687	0.015564	0.031586	0.011749	-0.08316	0.072174	0.21591	-0.000458	0.03067	-0.18204	0.006561	0.048676	0.13473	-0.1712	-0.005341	-0.015411	-0.034027	0.1236	2.6407	-0.17654	0.01709	0.14893	-0.039978	-0.009308	0.021057	0.011139	0.10895	-0.002136	-0.015259	-0.021667	-0.003204	0.002136
51.683	0.029602	-0.03891	0.025177	0.012665	-0.017242	0.027313	0.23651	-0.003662	0.033112	0.068359	0.016327	-0.02182	0.13611	0.44479	-0.073547	0.98343	-0.017853	-0.09201	1.366	-0.062866	-0.012665	0.14999	-0.016785	-0.032196	0.013733	0.009308	0.14938	-0.003204	-0.041504	-0.0177	-0.003662	0.005493
51.684	0.021973	-0.038605	0.001068	0.007019	0.080872	0.041656	0.22247	-0.000458	0.057678	0.23346	0.011902	-0.15854	0.049744	0.62714	-0.069275	0.24185	-0.014191	-0.18662	0.040131	-0.004578	0.011292	0.17899	-0.030365	-0.029297	0.041046	0.002136	-0.057983	-0.005188	-0.07431	-0.020447	-0.002899	-0.001984
51.685	0.018158	-0.014648	0.010071	-0.000916	0.08606	-0.031433	0.20233	-0.001984	0.081024	0.20126	0.00412	-0.13901	-0.11398	0.59891	-0.03067	0.55374	-0.008698	-0.19852	-0.54428	-0.041351	0.016022	0.1918	-0.019684	-0.032959	0.026093	-0.002289	-0.52399	-0.008698	-0.037689	-0.027924	0.005646	-0.006256
51.686	0.004883	-0.035706	0.010834	0.006256	0.044556	-0.08316	0.18768	0.001221	0.070648	0.13275	0.003052	-0.159	-0.20905	0.28549	-0.00473	-0.062256	-0.002899	-0.16678	-0.5455	-0.036011	0.02182	0.21439	-0.032501	-0.027313	0.022125	-0.00412	-0.43152	-0.003815	-0.052338	-0.008392	0.000153	-0.003052
51.687	0.014648	-0.007172	0.026398	0.009766	0.012512	-0.064697	0.10498	-0.003204	0.062408	-0.12634	0.000305	0.17014	-0.12344	-0.074463	-0.010071	-0.1239	0.014191	-0.09491	-0.25955	0.00946	-0.010071	0.18799	-0.006256	-0.025177	0.021515	-0.002594	-0.16953	-0.006256	-0.020599	-0.002594	-0.001678	0.001526
51.688	0.014038	-0.012665	0.025177	0.007782	0.004578	-0.035248	0.057678	0.005798	0.060272	-0.030823	0.007629	-0.07782	-0.07843	-0.071259	-0.016632	-0.19867	0.019226	-0.088043	0.35339	-0.065613	-0.050201	0.15243	-0.015106	-0.044708	0.02655	-0.006561	-0.054016	-0.006714	0.17838	-0.01236	-0.002441	-0.009918
